<svg xmlns="http://www.w3.org/2000/svg" xmlns:xlink="http://www.w3.org/1999/xlink"><defs><linearGradient id="paint0_linear" x1="19.774" y1="0" x2="105.785" y2="10.644" gradientUnits="userSpaceOnUse"><stop stop-color="#ED0233"/><stop offset="1" stop-color="#003EB7"/></linearGradient><linearGradient id="paint1_linear" x1="14" y1="49.52" x2="54.186" y2="9.184" gradientUnits="userSpaceOnUse"><stop stop-color="#003D85"/><stop offset=".885" stop-color="#B80027"/></linearGradient></defs><symbol id="icon-fb-mobile" viewBox="0 0 14 27">
<path d="M13.4728 0.0056178L10.1148 0C6.34228 0 3.90429 2.60806 3.90429 6.64474V9.7084H0.528007C0.236257 9.7084 0 9.95503 0 10.2592V14.6981C0 15.0023 0.236526 15.2487 0.528007 15.2487H3.90429V26.4495C3.90429 26.7537 4.14055 27 4.4323 27H8.83738C9.12914 27 9.36539 26.7534 9.36539 26.4495V15.2487H13.3131C13.6048 15.2487 13.8411 15.0023 13.8411 14.6981L13.8427 10.2592C13.8427 10.1132 13.7869 9.97328 13.688 9.86992C13.5892 9.76655 13.4545 9.7084 13.3144 9.7084H9.36539V7.11129C9.36539 5.86302 9.65068 5.22933 11.2102 5.22933L13.4723 5.22849C13.7637 5.22849 14 4.98187 14 4.67794V0.556162C14 0.25252 13.764 0.00617958 13.4728 0.0056178Z" fill="white"/>
</symbol><symbol id="icon-fb"><path d="M11.548.005L8.67 0C5.436 0 3.347 2.318 3.347 5.906V8.63H.453c-.25 0-.453.219-.453.49v3.945c0 .27.203.49.453.49h2.894v9.956c0 .27.202.489.452.489h3.776c.25 0 .452-.22.452-.49v-9.956h3.384c.25 0 .453-.219.453-.489l.001-3.946a.51.51 0 00-.132-.346.436.436 0 00-.32-.143H8.026V6.32c0-1.11.245-1.673 1.582-1.673h1.939c.25 0 .452-.22.452-.49V.494c0-.27-.202-.489-.452-.489z" fill="#fff"/></symbol><symbol id="icon-insta-mobile" viewBox="0 0 27 27">
<path d="M19.6913 0H7.30865C3.27859 0 0 3.27859 0 7.30865V19.6916C0 23.7214 3.27859 27 7.30865 27H19.6916C23.7214 27 27 23.7214 27 19.6916V7.30865C27 3.27859 23.7214 0 19.6913 0V0ZM13.5 20.8826C9.42915 20.8826 6.11739 17.5708 6.11739 13.5C6.11739 9.42915 9.42915 6.11739 13.5 6.11739C17.5708 6.11739 20.8826 9.42915 20.8826 13.5C20.8826 17.5708 17.5708 20.8826 13.5 20.8826ZM21.0591 7.85845C19.8561 7.85845 18.8777 6.87998 18.8777 5.67698C18.8777 4.47398 19.8561 3.4953 21.0591 3.4953C22.2621 3.4953 23.2408 4.47398 23.2408 5.67698C23.2408 6.87998 22.2621 7.85845 21.0591 7.85845Z" fill="white"/>
<path d="M13.5002 7.70044C10.3023 7.70044 7.70044 10.3021 7.70044 13.5002C7.70044 16.698 10.3023 19.2999 13.5002 19.2999C16.6982 19.2999 19.2999 16.698 19.2999 13.5002C19.2999 10.3021 16.6982 7.70044 13.5002 7.70044Z" fill="white"/>
<path d="M21.0583 5.07861C20.7283 5.07861 20.4597 5.34723 20.4597 5.67723C20.4597 6.00723 20.7283 6.27585 21.0583 6.27585C21.3885 6.27585 21.6572 6.00744 21.6572 5.67723C21.6572 5.34702 21.3885 5.07861 21.0583 5.07861Z" fill="white"/>
</symbol><symbol id="icon-insta"><path d="M17.503 0H6.497A6.504 6.504 0 000 6.497v11.007A6.504 6.504 0 006.497 24h11.007A6.504 6.504 0 0024 17.504V6.497A6.504 6.504 0 0017.503 0zM12 18.562A6.57 6.57 0 015.438 12 6.57 6.57 0 0112 5.438 6.57 6.57 0 0118.562 12 6.57 6.57 0 0112 18.562zm6.72-11.577c-1.07 0-1.94-.87-1.94-1.939 0-1.07.87-1.94 1.94-1.94 1.069 0 1.939.87 1.939 1.94 0 1.07-.87 1.94-1.94 1.94z" fill="#fff"/><path d="M12 6.844A5.161 5.161 0 006.845 12 5.161 5.161 0 0012 17.155 5.161 5.161 0 0017.155 12 5.161 5.161 0 0012 6.844zm6.719-2.33a.533.533 0 10.001 1.066.533.533 0 00-.001-1.066z" fill="#fff"/></symbol><symbol id="icon-play"><circle cx="50" cy="50" r="49" stroke="url(#paint0_linear)" stroke-opacity=".2" stroke-width="2"/><circle cx="50" cy="50" r="36" fill="url(#paint1_linear)"/><path d="M59 49.5l-12.75 7.361V42.14L59 49.5z" fill="#fff"/></symbol><symbol id="icon-prev-crimson"><path d="M17 1L1 17l16 16" stroke="#ED0233"/></symbol><symbol id="icon-prev"><path d="M17 1L1 17l16 16" stroke="#AFAFAF"/></symbol><symbol id="icon-rouble"><path fill-rule="evenodd" clip-rule="evenodd" d="M18.5 6H10v11h8.5a5.5 5.5 0 100-11zM4 0v23h14.5C24.851 23 30 17.851 30 11.5S24.851 0 18.5 0H4z" fill="#102654"/><path fill-rule="evenodd" clip-rule="evenodd" d="M0 17h6v6H0v-6z" fill="#102654"/><path fill-rule="evenodd" clip-rule="evenodd" d="M3.659 28.321V18h6v10.321H21v6H9.659V42h-6v-7.679H0v-6h3.659z" fill="#102654"/></symbol><symbol id="icon-vk-mobile" viewBox="0 0 32 17">
<path fill-rule="evenodd" clip-rule="evenodd" d="M27.5406 10.8094C28.602 11.7823 29.7224 12.6976 30.6744 13.7686C31.095 14.2445 31.4931 14.7356 31.7977 15.288C32.2293 16.0731 31.8384 16.9371 31.0885 16.984L26.4266 16.982C25.2243 17.0757 24.2651 16.6213 23.4586 15.8496C22.8131 15.2324 22.2154 14.5756 21.5948 13.9376C21.3403 13.6768 21.074 13.4314 20.7559 13.2375C20.1195 12.8497 19.5671 12.9684 19.2034 13.5915C18.833 14.2253 18.749 14.927 18.7126 15.6333C18.6627 16.6638 18.3308 16.9348 17.2281 16.9819C14.8716 17.0863 12.6351 16.7516 10.5574 15.6356C8.72568 14.6517 7.30526 13.2628 6.06893 11.6905C3.66178 8.62871 1.81839 5.26434 0.161611 1.80571C-0.211316 1.02647 0.0614137 0.608187 0.977277 0.593382C2.49811 0.565647 4.01873 0.567621 5.54135 0.591408C6.15946 0.599896 6.56866 0.93271 6.80732 1.48089C7.63014 3.38016 8.63694 5.18715 9.90071 6.86208C10.2373 7.30801 10.5804 7.75393 11.0691 8.0678C11.6097 8.41532 12.0214 8.30014 12.2757 7.73479C12.4371 7.37631 12.5077 6.9902 12.5441 6.60625C12.6646 5.28536 12.6805 3.96673 12.4691 2.65048C12.3394 1.829 11.8465 1.29721 10.9733 1.14176C10.5278 1.0625 10.5941 0.906852 10.8098 0.668097C11.1846 0.256323 11.537 0 12.2395 0H17.5081C18.3376 0.153675 18.5218 0.503466 18.6353 1.28694L18.6398 6.78085C18.6308 7.08416 18.8012 7.9842 19.3832 8.18495C19.8489 8.32787 20.1559 7.97808 20.4354 7.70083C21.6968 6.44399 22.5972 4.95866 23.4015 3.42063C23.7584 2.74434 24.0653 2.04199 24.3627 1.34024C24.5831 0.819502 24.9289 0.563278 25.5538 0.574628L30.6245 0.578872C30.7748 0.578872 30.927 0.580945 31.0726 0.604337C31.9271 0.741036 32.1612 1.08609 31.8973 1.86937C31.4815 3.09828 30.6724 4.12238 29.8814 5.15123C29.0357 6.24965 28.1313 7.31048 27.2928 8.41542C26.5223 9.42442 26.5835 9.93302 27.5406 10.8094Z" fill="white"/>
</symbol><symbol id="icon-vk"><path fill-rule="evenodd" clip-rule="evenodd" d="M20.655 8.266c.796.744 1.637 1.444 2.35 2.263.316.364.615.74.843 1.162.324.6.03 1.26-.532 1.297l-3.496-.002c-.902.072-1.621-.276-2.226-.866-.484-.472-.933-.974-1.398-1.462a3.27 3.27 0 00-.63-.535c-.476-.297-.89-.206-1.164.27-.277.485-.34 1.022-.368 1.562-.037.788-.286.995-1.113 1.031-1.767.08-3.445-.176-5.003-1.03-1.374-.752-2.44-1.814-3.366-3.016C2.746 6.598 1.364 4.026.122 1.38-.159.786.045.466.732.455A97.704 97.704 0 014.156.452c.464.007.77.261.95.68.617 1.453 1.372 2.835 2.32 4.115.252.341.51.682.876.922.405.266.714.178.905-.254.12-.274.174-.57.201-.863.09-1.01.102-2.019-.056-3.025C9.255 1.399 8.885.992 8.23.873c-.334-.06-.284-.18-.123-.362C8.388.196 8.653 0 9.18 0h3.951c.622.118.76.385.845.984l.004 4.201c-.007.232.12.92.557 1.074.35.11.58-.158.79-.37.946-.961 1.62-2.097 2.224-3.273.268-.517.498-1.054.721-1.591.165-.398.425-.594.893-.586l3.803.004c.113 0 .227.001.336.02.641.104.817.368.619.967-.312.94-.919 1.722-1.512 2.51-.634.84-1.313 1.65-1.941 2.495-.578.772-.532 1.16.185 1.831z" fill="#fff"/></symbol></svg>